<svg width="530" height="305" viewBox="0 0 530 305" fill="none" xmlns="http://www.w3.org/2000/svg">
<g clip-path="url(#clip0_8_6)">
<rect x="83.7311" y="-8.02631" width="399.059" height="217.602" fill="white"/>
<path d="M265 305C411.355 305 530 298.177 530 289.761C530 281.344 411.355 274.521 265 274.521C118.645 274.521 0 281.344 0 289.761C0 298.177 118.645 305 265 305Z" fill="#F2F2F2"/>
<path d="M482.504 0H84.3984V12.6641H482.504V0Z" fill="#F2F2F2"/>
<path d="M95.0516 9.4229C96.8619 9.4229 98.3295 7.95549 98.3295 6.14536C98.3295 4.33523 96.8619 2.86783 95.0516 2.86783C93.2412 2.86783 91.7737 4.33523 91.7737 6.14536C91.7737 7.95549 93.2412 9.4229 95.0516 9.4229Z" fill="#67927A"/>
<path d="M105.705 9.4229C107.515 9.4229 108.983 7.95549 108.983 6.14536C108.983 4.33523 107.515 2.86783 105.705 2.86783C103.894 2.86783 102.427 4.33523 102.427 6.14536C102.427 7.95549 103.894 9.4229 105.705 9.4229Z" fill="#67927A"/>
<path d="M116.358 9.4229C118.168 9.4229 119.636 7.95549 119.636 6.14536C119.636 4.33523 118.168 2.86783 116.358 2.86783C114.548 2.86783 113.08 4.33523 113.08 6.14536C113.08 7.95549 114.548 9.4229 116.358 9.4229Z" fill="#67927A"/>
<path d="M84.6804 200.293L84.3982 200.535V285.964H482.504V135.905L477.759 136.265L84.6804 200.293Z" fill="#3F3D56"/>
<path d="M224.3 84.7137H113.129V89.1959H224.3V84.7137Z" fill="#3F3D56"/>
<path d="M224.3 94.5745H113.129V99.0567H224.3V94.5745Z" fill="#3F3D56"/>
<path d="M150.784 104.435H113.129V108.918H150.784V104.435Z" fill="#3F3D56"/>
<path d="M451.012 209.15H339.841V213.632H451.012V209.15Z" fill="white"/>
<path d="M451.012 219.011H339.841V223.493H451.012V219.011Z" fill="white"/>
<path d="M377.496 228.872H339.841V233.354H377.496V228.872Z" fill="white"/>
<path d="M270.769 281.832C273.185 281.832 275.142 279.874 275.142 277.459C275.142 275.045 273.185 273.087 270.769 273.087C268.354 273.087 266.396 275.045 266.396 277.459C266.396 279.874 268.354 281.832 270.769 281.832Z" fill="#F2F2F2"/>
<path d="M283.451 282.269C285.866 282.269 287.824 280.312 287.824 277.897C287.824 275.482 285.866 273.524 283.451 273.524C281.036 273.524 279.078 275.482 279.078 277.897C279.078 280.312 281.036 282.269 283.451 282.269Z" fill="#F2F2F2"/>
<path d="M296.133 282.706C298.548 282.706 300.506 280.749 300.506 278.334C300.506 275.919 298.548 273.961 296.133 273.961C293.718 273.961 291.76 275.919 291.76 278.334C291.76 280.749 293.718 282.706 296.133 282.706Z" fill="#F2F2F2"/>
<path d="M283.491 281.395C285.423 281.395 286.99 279.829 286.99 277.897C286.99 275.965 285.423 274.399 283.491 274.399C281.559 274.399 279.993 275.965 279.993 277.897C279.993 279.829 281.559 281.395 283.491 281.395Z" fill="#3F3D56"/>
<path d="M187.443 136.019H149.789V144.609H187.443V136.019Z" fill="#3F3D56"/>
<path d="M411.261 252.256H373.607V260.846H411.261V252.256Z" fill="white"/>
<path opacity="0.3" d="M168.828 166.404C183.214 166.404 194.876 154.744 194.876 140.359C194.876 125.975 183.214 114.315 168.828 114.315C154.442 114.315 142.78 125.975 142.78 140.359C142.78 154.744 154.442 166.404 168.828 166.404Z" fill="#67927A"/>
<path opacity="0.3" d="M168.828 157.723C178.419 157.723 186.193 149.949 186.193 140.359C186.193 130.77 178.419 122.996 168.828 122.996C159.238 122.996 151.463 130.77 151.463 140.359C151.463 149.949 159.238 157.723 168.828 157.723Z" fill="#67927A"/>
<path d="M168.828 152.417C175.488 152.417 180.887 147.019 180.887 140.359C180.887 133.7 175.488 128.302 168.828 128.302C162.168 128.302 156.769 133.7 156.769 140.359C156.769 147.019 162.168 152.417 168.828 152.417Z" fill="#67927A"/>
<path opacity="0.3" d="M388.003 101.857C402.389 101.857 414.051 90.1965 414.051 75.8123C414.051 61.4282 402.389 49.7675 388.003 49.7675C373.618 49.7675 361.956 61.4282 361.956 75.8123C361.956 90.1965 373.618 101.857 388.003 101.857Z" fill="#67927A"/>
<path opacity="0.3" d="M388.003 93.1756C397.594 93.1756 405.369 85.4018 405.369 75.8124C405.369 66.2229 397.594 58.4491 388.003 58.4491C378.413 58.4491 370.638 66.2229 370.638 75.8124C370.638 85.4018 378.413 93.1756 388.003 93.1756Z" fill="#67927A"/>
<path d="M388.003 87.8702C394.663 87.8702 400.063 82.4717 400.063 75.8124C400.063 69.153 394.663 63.7545 388.003 63.7545C381.343 63.7545 375.944 69.153 375.944 75.8124C375.944 82.4717 381.343 87.8702 388.003 87.8702Z" fill="#67927A"/>
<path opacity="0.3" d="M392.646 282.642C407.032 282.642 418.694 270.981 418.694 256.597C418.694 242.213 407.032 230.552 392.646 230.552C378.26 230.552 366.598 242.213 366.598 256.597C366.598 270.981 378.26 282.642 392.646 282.642Z" fill="#67927A"/>
<path opacity="0.3" d="M392.646 273.96C402.237 273.96 410.011 266.186 410.011 256.597C410.011 247.007 402.237 239.233 392.646 239.233C383.056 239.233 375.281 247.007 375.281 256.597C375.281 266.186 383.056 273.96 392.646 273.96Z" fill="#67927A"/>
<path d="M392.646 268.655C399.306 268.655 404.705 263.256 404.705 256.597C404.705 249.937 399.306 244.539 392.646 244.539C385.986 244.539 380.587 249.937 380.587 256.597C380.587 263.256 385.986 268.655 392.646 268.655Z" fill="#67927A"/>
<path d="M43.3754 52.7463L54.0963 53.162L54.6308 39.3795L43.9099 38.9638L43.3754 52.7463Z" fill="#67927A"/>
<path d="M92.2718 87.233C92.2718 87.233 107.119 80.1402 106.881 86.2658C106.643 92.3913 91.9155 96.4213 91.9155 96.4213L92.2718 87.233Z" fill="#FFB9B9"/>
<path d="M84.1263 139.063C84.1263 139.063 91.1308 156.205 93.7188 168.575C96.3067 180.944 100.248 197.968 95.1783 210.041C90.1085 222.114 75.6946 257.596 75.5461 261.425C75.3977 265.253 76.7807 269.141 73.7176 269.022C70.6545 268.904 53.9856 263.656 53.3089 261.329C52.6322 259.003 58.996 253.115 58.996 253.115L74.7102 203.879L58.3148 171.803L46.4889 219.655L44.1726 279.379C44.1726 279.379 32.8047 275.871 31.1544 278.875C31.1544 278.875 26.0612 271.776 25.4142 268.683C24.7672 265.591 27.8196 206.662 27.8196 206.662C27.8196 206.662 17.3848 139.542 25.8084 139.869C34.232 140.195 67.2261 120.003 84.1263 139.063Z" fill="#2F2E41"/>
<path d="M73.8364 265.96C73.8364 265.96 81.6067 283.131 82.3427 283.927C83.0788 284.722 88.1423 292.587 84.3134 292.438C80.4845 292.29 71.4437 288.105 64.7892 281.712C58.1348 275.32 49.3612 264.244 50.1567 263.508C50.9522 262.772 56.4017 260.682 56.4017 260.682L73.8364 265.96Z" fill="#2F2E41"/>
<path d="M42.7896 275.492C42.7896 275.492 43.2584 283.178 44.6712 286.3C46.0839 289.422 45.9058 294.017 42.0769 293.868C38.248 293.72 28.3523 291.802 28.3523 291.802C28.3523 291.802 27.7647 287.178 28.5601 286.442C29.3556 285.706 32.7454 277.403 31.3029 275.046C29.8604 272.69 42.7896 275.492 42.7896 275.492Z" fill="#2F2E41"/>
<path d="M37.125 26.0478C37.125 26.0478 28.9624 38.7677 25.7805 41.7117C22.5987 44.6557 31.5504 51.1375 31.5504 51.1375L47.5724 53.2924C47.5724 53.2924 47.3708 38.7146 48.196 37.2129C49.0211 35.7112 37.125 26.0478 37.125 26.0478Z" fill="#FFB9B9"/>
<path d="M51.0512 42.6915C51.0512 42.6915 47.7505 48.6983 44.6874 48.5795C41.6243 48.4607 25.7805 41.7116 25.1038 39.3849C24.4271 37.0581 19.8559 56.0519 19.8559 56.0519L58.6244 124.271L68.081 117.736L63.4989 77.6821L59.7357 56.0646L51.0512 42.6915Z" fill="#67927A"/>
<path d="M23.6739 103.744C25.2203 106.979 26.1862 110.352 26.0523 113.805C26.0463 113.959 26.0404 114.112 26.0268 114.265C25.6599 121.351 23.0489 129.547 22.1122 135.508C21.4325 139.783 21.626 142.904 24.1284 143.638C30.1952 145.407 23.2438 146.671 46.7157 154.483C70.1875 162.294 74.2837 155.551 74.343 154.02C74.4024 152.489 71.019 140.855 71.8145 140.119C72.6099 139.383 82.9448 149.753 86.0673 148.34C89.1898 146.927 86.4236 139.152 86.4236 139.152C86.4236 139.152 79.3895 122.775 79.5379 118.947C79.6864 115.118 68.8827 97.062 68.8827 97.062L61.5345 49.2327C61.5345 49.2327 58.709 42.9884 54.9098 42.0743C51.1106 41.1601 47.9584 43.3384 47.9584 43.3384L54.3159 57.3881L61.0234 82.1872L59.9013 91.3458C59.9013 91.3458 52.1013 74.9397 46.9785 68.6063C41.8556 62.2729 30.9331 47.2794 30.9331 47.2794C30.9331 47.2794 28.3831 38.6762 30.3081 36.1052C32.2334 33.5266 22.2783 33.1406 18.0337 43.7118C15.784 49.3146 12.1315 57.6696 9.84348 65.4487C7.80461 72.3402 6.84151 78.7827 8.86144 82.4652C11.9487 88.0908 19.7147 95.4853 23.6739 103.744Z" fill="#575A89"/>
<path opacity="0.1" d="M8.86143 82.4652C11.9487 88.0908 19.7147 95.4852 23.6739 103.744C24.708 100.019 25.9695 96.1649 25.9695 96.1649C25.9695 96.1649 30.808 70.2798 16.4958 63.5901C14.1244 63.3608 11.7526 64.0235 9.84348 65.4487C7.80459 72.3402 6.84149 78.7827 8.86143 82.4652Z" fill="black"/>
<path d="M65.6775 80.8339L77.8111 84.3718L94.6582 85.025L96.3914 99.6622L68.7046 101.656C68.7046 101.656 61.7892 82.2168 65.6775 80.8339Z" fill="#575A89"/>
<path d="M45.8919 130.049C45.8919 130.049 62.1243 132.742 58.4194 137.626C54.7145 142.51 40.3345 137.375 40.3345 137.375L45.8919 130.049Z" fill="#FFB9B9"/>
<path opacity="0.1" d="M26.0268 114.265C25.6599 121.351 23.049 129.547 22.1122 135.508C27.2833 140.401 32.2006 144.718 34.0538 144.789C37.8827 144.938 44.0386 144.41 46.3062 145.265C48.5739 146.119 49.9039 131.601 49.9039 131.601C49.9039 131.601 48.5505 126.947 42.5133 124.413C38.4384 122.698 30.6274 118.047 26.0268 114.265Z" fill="black"/>
<path d="M16.674 58.9959C16.674 58.9959 3.71516 56.9598 4.41524 78.4586C5.11532 99.9573 3.04925 113.68 8.26122 117.717C13.4732 121.753 30.4031 140.047 34.232 140.195C38.0609 140.344 44.2168 139.816 46.4844 140.67C48.7521 141.525 50.082 127.007 50.082 127.007C50.082 127.007 48.7287 122.353 42.6915 119.819C36.6544 117.284 22.4313 108.297 22.55 105.234C22.6688 102.172 26.1477 91.5707 26.1477 91.5707C26.1477 91.5707 30.9862 65.6856 16.674 58.9959Z" fill="#575A89"/>
<path d="M48.5523 44.8825C57.8637 44.8825 65.4121 37.3349 65.4121 28.0246C65.4121 18.7142 57.8637 11.1667 48.5523 11.1667C39.2409 11.1667 31.6925 18.7142 31.6925 28.0246C31.6925 37.3349 39.2409 44.8825 48.5523 44.8825Z" fill="#FFB9B9"/>
<path d="M59.9044 3.86232C60.3111 4.21265 60.7981 4.457 61.322 4.57363C61.585 4.62051 61.8559 4.56145 62.0756 4.40932C62.2952 4.2572 62.4457 4.02437 62.4943 3.76167C62.88 4.56155 63.3152 5.41405 64.1028 5.82448C64.8904 6.2349 66.1081 5.89075 66.2217 5.01002C66.3367 5.67874 66.6325 6.30321 67.0772 6.81576C67.5659 7.28159 68.452 7.39917 68.8786 6.87596C68.5337 8.76058 68.7465 10.6987 68.6382 12.6115C68.5299 14.5244 68.0198 16.5523 66.5744 17.8101C64.4666 19.6445 61.2968 19.1918 58.5241 18.8442C58.1048 18.7562 57.6697 18.78 57.2625 18.9132C56.2243 19.3555 56.2714 20.8006 56.2574 21.9289C56.1727 23.9085 55.3891 25.7942 54.0457 27.2509C52.7023 28.7076 50.8861 29.6412 48.9195 29.8858C47.819 30.0556 46.696 29.7816 45.7975 29.1239C45.0102 28.4567 44.6081 27.3692 43.706 26.868C42.2386 26.0527 40.4589 27.2417 39.3861 28.5328C38.3132 29.8238 37.2558 31.4118 35.5938 31.6482C33.3957 31.9607 31.7216 29.7209 30.9002 27.6584C29.767 24.7677 29.224 21.6794 29.3034 18.5756C29.3828 15.4718 30.0829 12.4153 31.3625 9.58627C35.9522 -0.417403 51.6306 -1.99968 59.9044 3.86232Z" fill="#2F2E41"/>
<path d="M464.626 271.913C470.564 282.038 482.539 286.046 482.539 286.046C482.539 286.046 484.888 273.639 478.95 263.514C473.012 253.39 461.037 249.381 461.037 249.381C461.037 249.381 458.688 261.788 464.626 271.913Z" fill="#F2F2F2"/>
<path d="M468.331 268.379C478.6 274.066 482.902 285.938 482.902 285.938C482.902 285.938 470.555 288.59 460.286 282.904C450.017 277.217 445.715 265.345 445.715 265.345C445.715 265.345 458.062 262.692 468.331 268.379Z" fill="#67927A"/>
</g>
<defs>
<clipPath id="clip0_8_6">
<rect width="530" height="305" fill="white"/>
</clipPath>
</defs>
</svg>
